<?xml version="1.0" encoding="UTF-8" standalone="no"?>
<svg
   xmlns:dc="http://purl.org/dc/elements/1.1/"
   xmlns:cc="http://creativecommons.org/ns#"
   xmlns:rdf="http://www.w3.org/1999/02/22-rdf-syntax-ns#"
   xmlns:svg="http://www.w3.org/2000/svg"
   xmlns="http://www.w3.org/2000/svg"
   xmlns:sodipodi="http://sodipodi.sourceforge.net/DTD/sodipodi-0.dtd"
   xmlns:inkscape="http://www.inkscape.org/namespaces/inkscape"
   version="1.1"
   x="0px"
   y="0px"
   viewBox="0 0 79.512535 73.914001"
   enable-background="new 0 0 64 64"
   xml:space="preserve"
   id="svg12"
   sodipodi:docname="noun_619326_cc.svg"
   width="79.512535"
   height="73.914001"
   inkscape:version="0.92.1 r15371"><metadata
     id="metadata18"><rdf:RDF><cc:Work
         rdf:about=""><dc:format>image/svg+xml</dc:format><dc:type
           rdf:resource="http://purl.org/dc/dcmitype/StillImage" /><dc:title></dc:title></cc:Work></rdf:RDF></metadata><defs
     id="defs16" /><sodipodi:namedview
     pagecolor="#ffffff"
     bordercolor="#666666"
     borderopacity="1"
     objecttolerance="10"
     gridtolerance="10"
     guidetolerance="10"
     inkscape:pageopacity="0"
     inkscape:pageshadow="2"
     inkscape:window-width="640"
     inkscape:window-height="480"
     id="namedview14"
     showgrid="false"
     fit-margin-top="10"
     fit-margin-left="10"
     fit-margin-right="10"
     fit-margin-bottom="10"
     inkscape:zoom="2.95"
     inkscape:cx="39.755279"
     inkscape:cy="28.955"
     inkscape:window-x="0"
     inkscape:window-y="0"
     inkscape:window-maximized="0"
     inkscape:current-layer="svg12" /><g
     id="g6"
     transform="translate(7.7552788,4.959)"><path
       d="m 33.39,53.72 c -0.38,-0.018 -0.759,-0.028 -1.138,-0.038 -0.653,-0.017 -1.328,-0.035 -1.986,-0.09 -2.052,-0.174 -3.495,-0.673 -4.677,-1.615 -0.98,-0.783 -2.08,-0.912 -3.287,-0.391 -0.162,0.07 -0.322,0.146 -0.481,0.223 -0.232,0.111 -0.472,0.225 -0.713,0.315 -0.193,0.073 -0.322,0.105 -0.416,0.105 -0.143,0 -0.233,-0.071 -0.387,-0.489 l -0.059,-0.162 c -0.056,-0.156 -0.112,-0.312 -0.18,-0.462 -0.487,-1.079 -1.396,-1.674 -2.564,-1.678 -1.118,0 -1.991,0.61 -2.458,1.716 -0.1,0.238 -0.184,0.483 -0.266,0.72 -0.036,0.106 -0.073,0.213 -0.111,0.318 -0.115,0.32 -0.36,0.701 -0.881,0.703 -0.414,0 -0.743,-0.263 -0.82,-0.654 -0.113,-0.581 -0.236,-1.341 -0.179,-2.064 0.033,-0.417 0.097,-0.841 0.159,-1.251 0.14,-0.925 0.284,-1.881 0.097,-2.868 -0.364,-1.918 -2.2,-3.421 -4.18,-3.421 -0.312,0 -0.623,0.038 -0.923,0.112 -2.021,0.505 -3.35,2.219 -3.385,4.367 -0.022,1.329 0.346,2.591 0.702,3.811 l 0.104,0.358 c 0.23,0.799 0.46,1.66 0.58,2.538 0.125,0.919 -0.08,1.673 -0.609,2.242 -0.499,0.538 -1.067,0.701 -1.798,0.521 -0.547,-0.135 -1.068,0.211 -1.247,0.814 -0.144,0.486 0.082,1.124 0.645,1.303 0.345,0.108 0.86,0.252 1.351,0.252 0.127,0 0.25,-0.01 0.364,-0.029 C 6.974,58.541 8.477,56.407 8.22,53.851 8.135,53.002 7.918,52.157 7.709,51.34 7.592,50.881 7.47,50.408 7.374,49.94 7.337,49.759 7.298,49.576 7.258,49.395 7.093,48.629 6.923,47.837 6.899,47.061 6.881,46.481 7.091,45.936 7.489,45.526 7.858,45.145 8.356,44.928 8.857,44.928 l 0.076,0.001 c 1.135,0.049 1.93,0.975 1.892,2.203 -0.022,0.71 -0.142,1.434 -0.258,2.133 l -0.022,0.13 c -0.25,1.51 -0.167,2.65 0.266,3.694 0.543,1.309 1.652,2.091 2.967,2.091 h 0.05 c 1.366,-0.021 2.45,-0.8 2.974,-2.135 0.044,-0.111 0.082,-0.226 0.12,-0.34 0.073,-0.218 0.142,-0.426 0.248,-0.61 0.091,-0.158 0.285,-0.32 0.387,-0.32 0.104,0.001 0.29,0.147 0.424,0.332 0.076,0.104 0.117,0.242 0.162,0.388 0.025,0.082 0.05,0.164 0.081,0.241 0.598,1.518 1.785,2.104 3.343,1.639 0.414,-0.123 0.812,-0.308 1.197,-0.486 0.128,-0.06 0.256,-0.12 0.384,-0.177 0.405,-0.177 0.711,-0.144 1.087,0.12 0.637,0.447 1.266,0.812 1.87,1.084 2.074,0.935 4.329,1.062 6.284,1.109 h 0.936 c 0.852,-0.003 1.331,-0.393 1.35,-1.102 0.014,-0.693 -0.489,-1.167 -1.285,-1.203 z"
       id="path2"
       inkscape:connector-curvature="0"
       style="fill:#000000" /><path
       d="M 60.177,9.485 C 58.686,8.287 57.186,7.098 55.677,5.928 54.932,5.353 54.054,5.041 53.13,5.041 c -1.387,0 -2.745,0.708 -3.717,1.934 -0.415,0.509 -0.811,1.028 -1.217,1.547 l -0.547,0.689 -0.613,0.792 -18.869,24.388 -3.868,11.425 -0.066,0.321 c -0.057,1.151 0.292,2.179 0.991,2.915 0.613,0.651 1.462,1 2.377,1 0.66,0 1.349,-0.189 1.981,-0.547 2.387,-1.359 4.661,-2.991 6.859,-4.566 1.076,-0.764 2.142,-1.528 3.217,-2.264 l 0.151,-0.104 17.642,-22.689 0.019,0.018 1.462,-1.849 c 0.575,-0.736 1.151,-1.462 1.708,-2.208 1.651,-2.132 1.452,-4.801 -0.463,-6.358 z m -29.906,26.038 17.793,-23.001 0.708,0.547 0.887,0.698 H 49.66 L 31.93,36.644 c -0.942,-0.019 -1.488,-0.33 -1.8,-0.688 z m 4.813,3.84 h -0.001 c -2.159,-0.5 -2.415,-1.715 -2.443,-2.093 l 17.758,-22.914 2.695,2.111 v 0 z m -0.021,3.66 c -1.906,1.368 -3.878,2.774 -5.878,3.972 l -2.132,-1.953 2.736,-8.104 c 0.443,0.33 1.066,0.594 1.943,0.642 0.151,0.755 0.745,2.142 3.104,2.698 0.094,0.481 0.415,1.274 1.528,1.811 -0.433,0.312 -0.867,0.623 -1.301,0.934 z m 3.114,-2.198 c -0.292,0.198 -0.585,0.406 -0.877,0.613 -1.292,-0.396 -1.51,-1.123 -1.547,-1.396 0,-0.002 0,-0.001 0,-0.003 L 53.83,17.053 55.582,18.438 Z M 58.772,14.41 c -0.547,0.726 -1.113,1.434 -1.67,2.151 L 50.29,11.259 49.516,10.655 50.054,9.966 c 0.396,-0.509 0.792,-1.019 1.198,-1.528 0.84,-1.047 2.076,-1.349 2.972,-0.651 1.5,1.17 2.991,2.34 4.472,3.528 0.906,0.736 0.944,1.981 0.076,3.095 z"
       id="path4"
       inkscape:connector-curvature="0"
       style="fill:#000000" /></g></svg>